<?xml version="1.0" encoding="utf-8"?>
<!-- Generator: Adobe Illustrator 16.0.0, SVG Export Plug-In . SVG Version: 6.00 Build 0)  -->
<!DOCTYPE svg PUBLIC "-//W3C//DTD SVG 1.1//EN" "http://www.w3.org/Graphics/SVG/1.1/DTD/svg11.dtd">
<svg version="1.1" id="Layer_1" xmlns="http://www.w3.org/2000/svg" xmlns:xlink="http://www.w3.org/1999/xlink" x="0px" y="0px"
	 width="308px" height="320px" viewBox="0 0 308 320" enable-background="new 0 0 308 320" xml:space="preserve">
<circle fill="#00C0ED" cx="157.225" cy="175.5" r="122.5"/>
<path fill="#FDD706" stroke="#FCC715" stroke-width="3" d="M266.134,175.5c0,3.771-0.191,7.496-0.564,11.169
	s-0.928,7.291-1.655,10.847s-1.628,7.049-2.691,10.469c-1.064,3.421-2.292,6.77-3.674,10.037s-2.918,6.454-4.6,9.55
	s-3.51,6.101-5.473,9.007s0.389,0.318-1.837,3.016c-2.227,2.697,3.61-33.344-23.89-40.344c-15.75-3-37.5,11-36.75,36.25
	c3.5,35,40.734,25.14,37.828,27.103c-2.906,1.964-10.77,7.272-13.865,8.954s-6.281,3.219-9.549,4.601s-6.616,2.61-10.037,3.674
	c-3.42,1.063-6.913,1.964-10.469,2.691s-7.174,1.283-10.847,1.656c-3.673,0.372-7.398,0.563-11.169,0.563s-7.497-0.191-11.169-0.563
	c-3.672-0.373-7.291-0.929-10.847-1.656s-7.048-1.628-10.469-2.691s-6.77-2.292-10.037-3.674s-6.454-2.919-9.549-4.601
	s-6.101-3.508-9.007-5.472c-2.906-1.963-5.712-4.062-8.41-6.288s-5.287-4.58-7.758-7.051s-4.824-5.061-7.051-7.758
	c-2.226-2.697-4.325-5.504-6.289-8.41s-0.281,0.189-1.963-2.906c-1.682-3.096,1.382,3.268,0,0S92.814,194.921,91.75,191.5
	c-1.063-3.42-42.607,2.46-43.335-1.096c-0.728-3.556,0.173-0.063-0.2-3.735s-0.564-7.398-0.564-11.169s0.191-7.497,0.564-11.169
	c0.373-3.672,0.928-7.291,1.655-10.847c0.728-3.556,1.628-7.048,2.692-10.469c1.064-3.42,2.292-6.769,3.674-10.037
	s2.918-6.454,4.6-9.55c1.682-3.096,3.509-6.101,5.472-9.007s4.063-5.712,6.289-8.41c2.227-2.697,4.58-5.286,7.051-7.757
	s5.06-4.824,7.758-7.05c2.698-2.227,5.504-4.326,8.41-6.289c2.906-1.963,5.911-3.79,9.007-5.472
	c3.096-1.682,6.282-3.219,9.549-4.601s6.616-2.609,10.037-3.673s6.914-1.964,10.469-2.692s7.174-1.282,10.847-1.655
	s7.399-0.564,11.169-0.564s7.496,0.191,11.169,0.564s7.291,0.928,10.847,1.655s7.049,1.628,10.469,2.692
	c3.421,1.064,6.77,2.292,10.037,3.673s6.453,2.918,9.549,4.601c3.096,1.682,6.102,3.509,9.008,5.472s5.712,4.063,8.409,6.289
	c2.698,2.226,5.286,4.579,7.758,7.05s15.784,16.128,17.534,21.878c2.226,2.698-16.922-5.882-33.422,5.868
	c-21.25,17.25-12,36.418-9,39.168c15.25,15.166,34.411-4.196,38.5-9.668c8.75-10.75,9.105-24.643,10.17-21.223
	c1.063,3.421-1.099-4.854-0.371-1.299s6.201,13.021,8.021,31.353C265.942,168.003,266.134,171.729,266.134,175.5z"/>
<circle fill="#4AC0F9" cx="73.67" cy="172.417" r="8.123"/>
<circle fill="#231F20" cx="73.583" cy="172.71" r="5.833"/>
<path fill="#FFFFFF" d="M76.083,171.083c0,0.736-0.448,1.333-1,1.333h-0.5c-0.552,0-1-0.597-1-1.333l0,0
	c0-0.736,0.448-1.333,1-1.333h0.5C75.636,169.75,76.083,170.347,76.083,171.083L76.083,171.083z"/>
<path fill="#FFCE0F" stroke="#F7AC20" stroke-width="3" d="M158.75,184.75c1.854-3.26,7.75-25.792,0-27.25
	c-3.094-0.582-17.504,1.667-25.754,13.583c-5.933,8.57-6.914,23.991-4.246,23.991C139,195.074,153.75,193.539,158.75,184.75z"/>
<path fill="none" stroke="#F7AC20" stroke-width="3" d="M152,164.958c0,0-9.742,6.758-12.75,10.542
	c-2.863,3.602-10.25,18.039-10.25,18.039"/>
<path fill="none" stroke="#F7AC20" stroke-width="3" d="M149,176.848c0,0-6.992,3.368-10,7.152c-2.863,3.602-10,11.831-10,11.831"/>
<path fill="none" stroke="#F7AC20" stroke-width="3" d="M146.25,186.34c0,0-3.5-0.076-8.625,2.959
	c-3.958,2.345-8.625,6.532-8.625,6.532"/>
<path fill="#FDD706" stroke="#FCC715" stroke-width="3" d="M86.156,176.848c0,0,1.833,5.4,4.083,10.24
	c1.939,4.172,6.667,10.494,6.667,10.494"/>
</svg>
